# xmcd CD database file
#
# Track frame offsets:
#	150
#	22572
#	37162
#	62875
#	77265
#	106770
#	129587
#	144115
#	160285
#	173560
#	199555
#
# Disc length: 2804 seconds
#
# Revision: 0
# Processed by: cddbd v1.4PL0 Copyright (c) Steve Scherf et al.
# Submitted via: CDex 1.50beta10
#
DISCID=7b0af20b
DTITLE=Bryggerigangen Blues Band - Kald Pils - Hett Brygg
DYEAR=1991
DGENRE=Blues
TTITLE0=Heroin
TTITLE1=Frekke Faen
TTITLE2=For Gammel
TTITLE3=Kald Pils
TTITLE4=Knapper og Glans
TTITLE5=Liten Drosjekø
TTITLE6=(ukjent)
TTITLE7=H.D.
TTITLE8=Dyret
TTITLE9=Bryggerigangens Sommerslager
TTITLE10=Hett Brygg
EXTD=YEAR: 1991
EXTT0=
EXTT1=
EXTT2=
EXTT3=
EXTT4=
EXTT5=
EXTT6=
EXTT7=
EXTT8=
EXTT9=
EXTT10=
PLAYORDER=
